# xmcd
#
# Track frame offsets:
# 150
# 4129
# 17271
# 29362
# 49639
# 59044
# 70692
# 91100
# 102834
# 116743
# 130007
# 142696
# 159863
# 176208
# 191366
#
# Disc length: 2788 seconds
#
#
# Revision: 1
# Processed by: cddbd v1.5.1PL2 Copyright (c) Steve Scherf et al.
# Submitted via: FreeRIP 2.944 
#
DISCID=b50ae20f
DTITLE=Clube da Viola - Volume 2
DYEAR=1900
DGENRE=Sertanejo
TTITLE0=Verso de Abertura - Tião Carreiro
TTITLE1=Fred e Pedrito - Pinha no Pinheiro
TTITLE2=Ludy e Junior - Agarra Agarra
TTITLE3=Cézar e Paulinho -  Forró Bailão
TTITLE4=João Pedro e Cristiano - Forró em Goiás
TTITLE5=Leandro e Leonardo - Entre um Gole e Outro
TTITLE6=Ataíde e Alexandre - Laço Aberto
TTITLE7=Guilherme e Gustavo - Só com Você
TTITLE8=João Paulo e Daniel - Pede para Voltar
TTITLE9=João Pedro e Cristiano - Saudade
TTITLE10=Milionário e José Rico - Pé da Letra
TTITLE11=Chrystian e Ralf - De Cara Cheia
TTITLE12=Fred e Pedrito - Heróis do Passado
TTITLE13=Lucas e Luan - Mexe que é Bom
TTITLE14=João Pedro e Cristiano - Vida Cigana
EXTD=
EXTT0=
EXTT1=
EXTT2=
EXTT3=
EXTT4=
EXTT5=
EXTT6=
EXTT7=
EXTT8=
EXTT9=
EXTT10=
EXTT11=
EXTT12=
EXTT13=
EXTT14=
PLAYORDER=
